<?xml version="1.0" encoding="UTF-8"?>
<svg id="Ebene_1" data-name="Ebene 1" xmlns="http://www.w3.org/2000/svg" viewBox="0 0 495.13 121.32">
  <defs>
    <style>
      .cls-1 {
        fill: #de5f70;
      }
    </style>
  </defs>
  <path class="cls-1" d="M0,2.68h31.24v117.54H0V2.68Z"/>
  <path class="cls-1" d="M84.09,78.1h-11.52v42.12h-29.98V2.52l42.28.16c30.92,0,45.75,13.73,45.75,36.76,0,15.46-3.94,28.24-19.72,35.02,4.89.16,21.61,41.34,25.4,45.75h-33.6l-18.62-42.12ZM85.35,56.64c8.52,0,15.62-3.79,15.62-15.3,0-9.78-5.36-13.88-14.99-14.04h-13.25v29.34h12.62Z"/>
  <path class="cls-1" d="M147.67,105.7l10.73-14.04c5.68,5.68,15.3,12.78,29.66,12.78,15.93,0,22.4-5.84,22.4-15.78s-5.84-14.36-25.87-20.35c-19.25-5.68-33.29-14.67-33.29-34.87S169.29,1.1,190.59,1.1c17.67,0,28.56,8.52,32.66,13.57l-10.57,13.41c-4.58-4.89-11.52-10.1-22.72-10.1-13.73,0-20.04,6.31-20.04,15.15,0,9.31,3.94,14.2,21.46,19.25,21.61,6.15,37.55,14.36,37.71,35.03.16,22.25-17.04,33.92-41.81,33.92-15.93,0-32.34-6.47-39.6-15.62Z"/>
  <path class="cls-1" d="M240.28,87.56v-52.06h18.93v50.17c0,14.04,5.21,18.77,14.51,18.77,13.41,0,20.04-14.2,20.04-24.77v-44.18h18.93v84.72h-16.72l-1.26-20.35c-2.05,10.26-11.04,21.46-25.08,21.46-17.99,0-29.34-11.52-29.34-33.76Z"/>
  <path class="cls-1" d="M327.11,11.52c0-7.57,4.26-11.52,11.2-11.52s11.36,3.94,11.36,11.52-4.42,11.52-11.36,11.52-11.2-3.79-11.2-11.52ZM328.53,35.5h19.25v84.72h-19.25V35.5Z"/>
  <path class="cls-1" d="M372.67,96.4v-45.28h-12.62v-15.62h12.94l.79-20.98,17.35-4.58v25.56h19.72v15.62h-19.72v45.44c0,5.21,1.89,8.2,7.89,8.2s10.57-3.15,13.88-5.68l5.36,13.88c-5.05,4.89-13.88,8.36-23.35,8.36-13.25,0-22.25-7.26-22.25-24.93Z"/>
  <path class="cls-1" d="M460.58,121.32c-24.61,0-41.18-16.41-41.18-42.28,0-27.14,14.04-44.81,40.07-44.81,18.93,0,35.66,12.31,35.66,38.34,0,5.05-.63,8.68-1.1,11.36l-56.17-.31c1.26,14.2,8.99,22.09,23.82,22.09,11.2,0,17.51-4.58,21.77-8.52l7.1,13.09c-6.31,6.94-17.04,11.04-29.98,11.04ZM476.67,69.89c0-11.67-5.21-20.19-17.99-20.19-11.36,0-19.09,7.41-20.67,20.19h38.65Z"/>
</svg>